# Tiled2Unity generated file. Do not modify by hand.
# Wavefront file for 'FifthLevel_mesh_0003.obj'

# Vertices (Count = 60)
v -5.028572 -37.48571 0
v -6.028572 -37.48571 0
v -6.028572 -36.48571 0
v -5.028572 -36.48571 0
v -4.114286 -38.4 0
v -5.114286 -38.4 0
v -5.114286 -37.4 0
v -4.114286 -37.4 0
v -5.028572 -38.4 0
v -6.028572 -38.4 0
v -6.028572 -37.4 0
v -5.028572 -37.4 0
v -5.942857 -38.4 0
v -6.942857 -38.4 0
v -6.942857 -37.4 0
v -5.942857 -37.4 0
v -7.771429 -39.31429 0
v -8.771429 -39.31429 0
v -8.771429 -38.31429 0
v -7.771429 -38.31429 0
v -4.114286 -40.22857 0
v -5.114286 -40.22857 0
v -5.114286 -39.22857 0
v -4.114286 -39.22857 0
v -5.028572 -40.22857 0
v -6.028572 -40.22857 0
v -6.028572 -39.22857 0
v -5.028572 -39.22857 0
v -5.942857 -40.22857 0
v -6.942857 -40.22857 0
v -6.942857 -39.22857 0
v -5.942857 -39.22857 0
v -6.857143 -40.22857 0
v -7.857143 -40.22857 0
v -7.857143 -39.22857 0
v -6.857143 -39.22857 0
v -7.771429 -40.22857 0
v -8.771429 -40.22857 0
v -8.771429 -39.22857 0
v -7.771429 -39.22857 0
v -8.685715 -40.22857 0
v -9.685715 -40.22857 0
v -9.685715 -39.22857 0
v -8.685715 -39.22857 0
v -5.028572 -41.14286 0
v -6.028572 -41.14286 0
v -6.028572 -40.14286 0
v -5.028572 -40.14286 0
v -6.857143 -41.14286 0
v -7.857143 -41.14286 0
v -7.857143 -40.14286 0
v -6.857143 -40.14286 0
v -8.685715 -41.14286 0
v -9.685715 -41.14286 0
v -9.685715 -40.14286 0
v -8.685715 -40.14286 0
v -6.857143 -42.05714 0
v -7.857143 -42.05714 0
v -7.857143 -41.05714 0
v -6.857143 -41.05714 0

# Texture cooridinates (Count = 23)
vt 0.07142857 0
vt 0.1428571 0
vt 0.1428571 0.1428571
vt 0.07142857 0.1428571
vt 0 0.1428571
vt 0.07142857 0.2857143
vt 0 0.2857143
vt 0.2142857 0
vt 0.2142857 0.1428571
vt 0.7857143 0.4285714
vt 0.8571429 0.4285714
vt 0.8571429 0.5714285
vt 0.7857143 0.5714285
vt 0.7142857 0.8571429
vt 0.7857143 0.8571429
vt 0.7857143 1
vt 0.7142857 1
vt 0.2857143 0.1428571
vt 0.3571429 0.1428571
vt 0.3571429 0.2857143
vt 0.2857143 0.2857143
vt 0.7142857 0.7142857
vt 0.7857143 0.7142857

# Normal
vn 0 0 -1

# Mesh description
g FifthLevel_mesh_0003

# Faces
f 1/1/1 2/2/1 3/3/1 4/4/1
f 5/5/1 6/4/1 7/6/1 8/7/1
f 9/5/1 10/4/1 11/6/1 12/7/1
f 13/5/1 14/4/1 15/6/1 16/7/1
f 17/2/1 18/8/1 19/9/1 20/3/1
f 21/5/1 22/4/1 23/6/1 24/7/1
f 25/5/1 26/4/1 27/6/1 28/7/1
f 29/5/1 30/4/1 31/6/1 32/7/1
f 33/5/1 34/4/1 35/6/1 36/7/1
f 37/5/1 38/4/1 39/6/1 40/7/1
f 41/5/1 42/4/1 43/6/1 44/7/1
f 45/10/1 46/11/1 47/12/1 48/13/1
f 49/14/1 50/15/1 51/16/1 52/17/1
f 53/18/1 54/19/1 55/20/1 56/21/1
f 57/22/1 58/23/1 59/15/1 60/14/1

