# Tiled2Unity generated file. Do not modify by hand.
# Wavefront file for 'FifthLevel_mesh_0002.obj'

# Vertices (Count = 64)
v -83.65714 -30.62857 0
v -84.65714 -30.62857 0
v -84.65714 -29.62857 0
v -83.65714 -29.62857 0
v -84.57143 -30.62857 0
v -85.57143 -30.62857 0
v -85.57143 -29.62857 0
v -84.57143 -29.62857 0
v -85.48572 -30.62857 0
v -86.48572 -30.62857 0
v -86.48572 -29.62857 0
v -85.48572 -29.62857 0
v -86.4 -30.62857 0
v -87.4 -30.62857 0
v -87.4 -29.62857 0
v -86.4 -29.62857 0
v -89.14286 -30.62857 0
v -90.14286 -30.62857 0
v -90.14286 -29.62857 0
v -89.14286 -29.62857 0
v -90.05714 -30.62857 0
v -91.05714 -30.62857 0
v -91.05714 -29.62857 0
v -90.05714 -29.62857 0
v -90.97143 -30.62857 0
v -91.97143 -30.62857 0
v -91.97143 -29.62857 0
v -90.97143 -29.62857 0
v -91.88571 -30.62857 0
v -92.88571 -30.62857 0
v -92.88571 -29.62857 0
v -91.88571 -29.62857 0
v -83.65714 -31.08571 0
v -84.65714 -31.08571 0
v -84.65714 -30.08571 0
v -83.65714 -30.08571 0
v -84.57143 -31.08571 0
v -85.57143 -31.08571 0
v -85.57143 -30.08571 0
v -84.57143 -30.08571 0
v -85.48572 -31.08571 0
v -86.48572 -31.08571 0
v -86.48572 -30.08571 0
v -85.48572 -30.08571 0
v -86.4 -31.08571 0
v -87.4 -31.08571 0
v -87.4 -30.08571 0
v -86.4 -30.08571 0
v -89.14286 -31.08571 0
v -90.14286 -31.08571 0
v -90.14286 -30.08571 0
v -89.14286 -30.08571 0
v -90.05714 -31.08571 0
v -91.05714 -31.08571 0
v -91.05714 -30.08571 0
v -90.05714 -30.08571 0
v -90.97143 -31.08571 0
v -91.97143 -31.08571 0
v -91.97143 -30.08571 0
v -90.97143 -30.08571 0
v -91.88571 -31.08571 0
v -92.88571 -31.08571 0
v -92.88571 -30.08571 0
v -91.88571 -30.08571 0

# Texture cooridinates (Count = 4)
vt 0.5714286 0
vt 0.6428571 0
vt 0.6428571 0.1428571
vt 0.5714286 0.1428571

# Normal
vn 0 0 -1

# Mesh description
g FifthLevel_mesh_0002

# Faces
f 1/1/1 2/2/1 3/3/1 4/4/1
f 5/1/1 6/2/1 7/3/1 8/4/1
f 9/1/1 10/2/1 11/3/1 12/4/1
f 13/1/1 14/2/1 15/3/1 16/4/1
f 17/1/1 18/2/1 19/3/1 20/4/1
f 21/1/1 22/2/1 23/3/1 24/4/1
f 25/1/1 26/2/1 27/3/1 28/4/1
f 29/1/1 30/2/1 31/3/1 32/4/1
f 33/1/1 34/2/1 35/3/1 36/4/1
f 37/1/1 38/2/1 39/3/1 40/4/1
f 41/1/1 42/2/1 43/3/1 44/4/1
f 45/1/1 46/2/1 47/3/1 48/4/1
f 49/1/1 50/2/1 51/3/1 52/4/1
f 53/1/1 54/2/1 55/3/1 56/4/1
f 57/1/1 58/2/1 59/3/1 60/4/1
f 61/1/1 62/2/1 63/3/1 64/4/1

