# Tiled2Unity generated file. Do not modify by hand.
# Wavefront file for 'ThirdLevel_mesh_0010.obj'

# Vertices (Count = 192)
v -114.7429 -10.05714 0
v -115.7429 -10.05714 0
v -115.7429 -9.057143 0
v -114.7429 -9.057143 0
v -115.6571 -10.05714 0
v -116.6571 -10.05714 0
v -116.6571 -9.057143 0
v -115.6571 -9.057143 0
v -120.6857 -10.05714 0
v -121.6857 -10.05714 0
v -121.6857 -9.057143 0
v -120.6857 -9.057143 0
v -121.6 -10.05714 0
v -122.6 -10.05714 0
v -122.6 -9.057143 0
v -121.6 -9.057143 0
v -139.8857 -10.05714 0
v -140.8857 -10.05714 0
v -140.8857 -9.057143 0
v -139.8857 -9.057143 0
v -140.8 -10.05714 0
v -141.8 -10.05714 0
v -141.8 -9.057143 0
v -140.8 -9.057143 0
v -114.7429 -10.97143 0
v -115.7429 -10.97143 0
v -115.7429 -9.971429 0
v -114.7429 -9.971429 0
v -115.6571 -10.97143 0
v -116.6571 -10.97143 0
v -116.6571 -9.971429 0
v -115.6571 -9.971429 0
v -120.6857 -10.97143 0
v -121.6857 -10.97143 0
v -121.6857 -9.971429 0
v -120.6857 -9.971429 0
v -121.6 -10.97143 0
v -122.6 -10.97143 0
v -122.6 -9.971429 0
v -121.6 -9.971429 0
v -139.8857 -10.97143 0
v -140.8857 -10.97143 0
v -140.8857 -9.971429 0
v -139.8857 -9.971429 0
v -140.8 -10.97143 0
v -141.8 -10.97143 0
v -141.8 -9.971429 0
v -140.8 -9.971429 0
v -114.7429 -11.88571 0
v -115.7429 -11.88571 0
v -115.7429 -10.88571 0
v -114.7429 -10.88571 0
v -115.6571 -11.88571 0
v -116.6571 -11.88571 0
v -116.6571 -10.88571 0
v -115.6571 -10.88571 0
v -120.6857 -11.88571 0
v -121.6857 -11.88571 0
v -121.6857 -10.88571 0
v -120.6857 -10.88571 0
v -121.6 -11.88571 0
v -122.6 -11.88571 0
v -122.6 -10.88571 0
v -121.6 -10.88571 0
v -139.8857 -11.88571 0
v -140.8857 -11.88571 0
v -140.8857 -10.88571 0
v -139.8857 -10.88571 0
v -140.8 -11.88571 0
v -141.8 -11.88571 0
v -141.8 -10.88571 0
v -140.8 -10.88571 0
v -114.7429 -12.8 0
v -115.7429 -12.8 0
v -115.7429 -11.8 0
v -114.7429 -11.8 0
v -115.6571 -12.8 0
v -116.6571 -12.8 0
v -116.6571 -11.8 0
v -115.6571 -11.8 0
v -120.6857 -12.8 0
v -121.6857 -12.8 0
v -121.6857 -11.8 0
v -120.6857 -11.8 0
v -121.6 -12.8 0
v -122.6 -12.8 0
v -122.6 -11.8 0
v -121.6 -11.8 0
v -139.8857 -12.8 0
v -140.8857 -12.8 0
v -140.8857 -11.8 0
v -139.8857 -11.8 0
v -140.8 -12.8 0
v -141.8 -12.8 0
v -141.8 -11.8 0
v -140.8 -11.8 0
v -114.7429 -13.71429 0
v -115.7429 -13.71429 0
v -115.7429 -12.71429 0
v -114.7429 -12.71429 0
v -115.6571 -13.71429 0
v -116.6571 -13.71429 0
v -116.6571 -12.71429 0
v -115.6571 -12.71429 0
v -120.6857 -13.71429 0
v -121.6857 -13.71429 0
v -121.6857 -12.71429 0
v -120.6857 -12.71429 0
v -121.6 -13.71429 0
v -122.6 -13.71429 0
v -122.6 -12.71429 0
v -121.6 -12.71429 0
v -139.8857 -13.71429 0
v -140.8857 -13.71429 0
v -140.8857 -12.71429 0
v -139.8857 -12.71429 0
v -140.8 -13.71429 0
v -141.8 -13.71429 0
v -141.8 -12.71429 0
v -140.8 -12.71429 0
v -95.08572 -14.62857 0
v -96.08572 -14.62857 0
v -96.08572 -13.62857 0
v -95.08572 -13.62857 0
v -97.82858 -14.62857 0
v -98.82858 -14.62857 0
v -98.82858 -13.62857 0
v -97.82858 -13.62857 0
v -100.5714 -14.62857 0
v -101.5714 -14.62857 0
v -101.5714 -13.62857 0
v -100.5714 -13.62857 0
v -103.3143 -14.62857 0
v -104.3143 -14.62857 0
v -104.3143 -13.62857 0
v -103.3143 -13.62857 0
v -106.0571 -14.62857 0
v -107.0571 -14.62857 0
v -107.0571 -13.62857 0
v -106.0571 -13.62857 0
v -114.7429 -14.62857 0
v -115.7429 -14.62857 0
v -115.7429 -13.62857 0
v -114.7429 -13.62857 0
v -115.6571 -14.62857 0
v -116.6571 -14.62857 0
v -116.6571 -13.62857 0
v -115.6571 -13.62857 0
v -120.6857 -14.62857 0
v -121.6857 -14.62857 0
v -121.6857 -13.62857 0
v -120.6857 -13.62857 0
v -121.6 -14.62857 0
v -122.6 -14.62857 0
v -122.6 -13.62857 0
v -121.6 -13.62857 0
v -139.8857 -14.62857 0
v -140.8857 -14.62857 0
v -140.8857 -13.62857 0
v -139.8857 -13.62857 0
v -140.8 -14.62857 0
v -141.8 -14.62857 0
v -141.8 -13.62857 0
v -140.8 -13.62857 0
v -140.3429 -29.25714 0
v -141.3429 -29.25714 0
v -141.3429 -28.25714 0
v -140.3429 -28.25714 0
v -143.0857 -29.25714 0
v -144.0857 -29.25714 0
v -144.0857 -28.25714 0
v -143.0857 -28.25714 0
v -145.8286 -29.25714 0
v -146.8286 -29.25714 0
v -146.8286 -28.25714 0
v -145.8286 -28.25714 0
v -138.9714 -32 0
v -139.9714 -32 0
v -139.9714 -31 0
v -138.9714 -31 0
v -141.7143 -32 0
v -142.7143 -32 0
v -142.7143 -31 0
v -141.7143 -31 0
v -144.4571 -32 0
v -145.4571 -32 0
v -145.4571 -31 0
v -144.4571 -31 0
v -147.2 -32 0
v -148.2 -32 0
v -148.2 -31 0
v -147.2 -31 0

# Texture cooridinates (Count = 16)
vt 0.7857143 0.5714285
vt 0.8571429 0.5714285
vt 0.8571429 0.7142857
vt 0.7857143 0.7142857
vt 0.9285714 0.5714285
vt 1 0.5714285
vt 1 0.7142857
vt 0.9285714 0.7142857
vt 0.2142857 0.4285714
vt 0.2857143 0.4285714
vt 0.2857143 0.5714285
vt 0.2142857 0.5714285
vt 0 0.4285714
vt 0.07142857 0.4285714
vt 0.07142857 0.5714285
vt 0 0.5714285

# Normal
vn 0 0 -1

# Mesh description
g ThirdLevel_mesh_0010

# Faces
f 1/1/1 2/2/1 3/3/1 4/4/1
f 5/5/1 6/6/1 7/7/1 8/8/1
f 9/1/1 10/2/1 11/3/1 12/4/1
f 13/5/1 14/6/1 15/7/1 16/8/1
f 17/1/1 18/2/1 19/3/1 20/4/1
f 21/5/1 22/6/1 23/7/1 24/8/1
f 25/2/1 26/5/1 27/8/1 28/3/1
f 29/2/1 30/5/1 31/8/1 32/3/1
f 33/2/1 34/5/1 35/8/1 36/3/1
f 37/2/1 38/5/1 39/8/1 40/3/1
f 41/2/1 42/5/1 43/8/1 44/3/1
f 45/2/1 46/5/1 47/8/1 48/3/1
f 49/2/1 50/5/1 51/8/1 52/3/1
f 53/2/1 54/5/1 55/8/1 56/3/1
f 57/2/1 58/5/1 59/8/1 60/3/1
f 61/2/1 62/5/1 63/8/1 64/3/1
f 65/2/1 66/5/1 67/8/1 68/3/1
f 69/2/1 70/5/1 71/8/1 72/3/1
f 73/2/1 74/5/1 75/8/1 76/3/1
f 77/2/1 78/5/1 79/8/1 80/3/1
f 81/2/1 82/5/1 83/8/1 84/3/1
f 85/2/1 86/5/1 87/8/1 88/3/1
f 89/2/1 90/5/1 91/8/1 92/3/1
f 93/2/1 94/5/1 95/8/1 96/3/1
f 97/2/1 98/5/1 99/8/1 100/3/1
f 101/2/1 102/5/1 103/8/1 104/3/1
f 105/2/1 106/5/1 107/8/1 108/3/1
f 109/2/1 110/5/1 111/8/1 112/3/1
f 113/2/1 114/5/1 115/8/1 116/3/1
f 117/2/1 118/5/1 119/8/1 120/3/1
f 121/9/1 122/10/1 123/11/1 124/12/1
f 125/9/1 126/10/1 127/11/1 128/12/1
f 129/9/1 130/10/1 131/11/1 132/12/1
f 133/9/1 134/10/1 135/11/1 136/12/1
f 137/9/1 138/10/1 139/11/1 140/12/1
f 141/2/1 142/5/1 143/8/1 144/3/1
f 145/2/1 146/5/1 147/8/1 148/3/1
f 149/2/1 150/5/1 151/8/1 152/3/1
f 153/2/1 154/5/1 155/8/1 156/3/1
f 157/2/1 158/5/1 159/8/1 160/3/1
f 161/2/1 162/5/1 163/8/1 164/3/1
f 165/13/1 166/14/1 167/15/1 168/16/1
f 169/13/1 170/14/1 171/15/1 172/16/1
f 173/13/1 174/14/1 175/15/1 176/16/1
f 177/9/1 178/10/1 179/11/1 180/12/1
f 181/9/1 182/10/1 183/11/1 184/12/1
f 185/9/1 186/10/1 187/11/1 188/12/1
f 189/9/1 190/10/1 191/11/1 192/12/1

