# Tiled2Unity generated file. Do not modify by hand.
# Wavefront file for 'ThirdLevel_mesh_0011.obj'

# Vertices (Count = 44)
v -111.0857 -14.62857 0
v -112.0857 -14.62857 0
v -112.0857 -13.62857 0
v -111.0857 -13.62857 0
v -125.2571 -14.62857 0
v -126.2571 -14.62857 0
v -126.2571 -13.62857 0
v -125.2571 -13.62857 0
v -135.3143 -14.62857 0
v -136.3143 -14.62857 0
v -136.3143 -13.62857 0
v -135.3143 -13.62857 0
v -136.2286 -14.62857 0
v -137.2286 -14.62857 0
v -137.2286 -13.62857 0
v -136.2286 -13.62857 0
v -137.1429 -14.62857 0
v -138.1429 -14.62857 0
v -138.1429 -13.62857 0
v -137.1429 -13.62857 0
v -138.0571 -14.62857 0
v -139.0571 -14.62857 0
v -139.0571 -13.62857 0
v -138.0571 -13.62857 0
v -135.3143 -15.08571 0
v -136.3143 -15.08571 0
v -136.3143 -14.08571 0
v -135.3143 -14.08571 0
v -136.2286 -15.08571 0
v -137.2286 -15.08571 0
v -137.2286 -14.08571 0
v -136.2286 -14.08571 0
v -137.1429 -15.08571 0
v -138.1429 -15.08571 0
v -138.1429 -14.08571 0
v -137.1429 -14.08571 0
v -138.0571 -15.08571 0
v -139.0571 -15.08571 0
v -139.0571 -14.08571 0
v -138.0571 -14.08571 0
v -149.9429 -32 0
v -150.9429 -32 0
v -150.9429 -31 0
v -149.9429 -31 0

# Texture cooridinates (Count = 12)
vt 0.1428571 0.1428571
vt 0.2142857 0.1428571
vt 0.2142857 0.2857143
vt 0.1428571 0.2857143
vt 0.2857143 0.1428571
vt 0.2857143 0.2857143
vt 0.5714286 0
vt 0.6428571 0
vt 0.6428571 0.1428571
vt 0.5714286 0.1428571
vt 0.1428571 0
vt 0.2142857 0

# Normal
vn 0 0 -1

# Mesh description
g ThirdLevel_mesh_0011

# Faces
f 1/1/1 2/2/1 3/3/1 4/4/1
f 5/2/1 6/5/1 7/6/1 8/3/1
f 9/7/1 10/8/1 11/9/1 12/10/1
f 13/7/1 14/8/1 15/9/1 16/10/1
f 17/7/1 18/8/1 19/9/1 20/10/1
f 21/7/1 22/8/1 23/9/1 24/10/1
f 25/7/1 26/8/1 27/9/1 28/10/1
f 29/7/1 30/8/1 31/9/1 32/10/1
f 33/7/1 34/8/1 35/9/1 36/10/1
f 37/7/1 38/8/1 39/9/1 40/10/1
f 41/11/1 42/12/1 43/2/1 44/1/1

