# Tiled2Unity generated file. Do not modify by hand.
# Wavefront file for 'FirstLevel_mesh_0006.obj'

# Vertices (Count = 400)
v -65.37143 -32.45714 0
v -66.37143 -32.45714 0
v -66.37143 -31.45714 0
v -65.37143 -31.45714 0
v -66.28571 -32.45714 0
v -67.28571 -32.45714 0
v -67.28571 -31.45714 0
v -66.28571 -31.45714 0
v -64.45715 -33.37143 0
v -65.45715 -33.37143 0
v -65.45715 -32.37143 0
v -64.45715 -32.37143 0
v -65.37143 -33.37143 0
v -66.37143 -33.37143 0
v -66.37143 -32.37143 0
v -65.37143 -32.37143 0
v -66.28571 -33.37143 0
v -67.28571 -33.37143 0
v -67.28571 -32.37143 0
v -66.28571 -32.37143 0
v -67.2 -33.37143 0
v -68.2 -33.37143 0
v -68.2 -32.37143 0
v -67.2 -32.37143 0
v -65.82858 -33.82857 0
v -66.82858 -33.82857 0
v -66.82858 -32.82857 0
v -65.82858 -32.82857 0
v -64.45715 -34.28571 0
v -65.45715 -34.28571 0
v -65.45715 -33.28571 0
v -64.45715 -33.28571 0
v -65.37143 -34.28571 0
v -66.37143 -34.28571 0
v -66.37143 -33.28571 0
v -65.37143 -33.28571 0
v -66.28571 -34.28571 0
v -67.28571 -34.28571 0
v -67.28571 -33.28571 0
v -66.28571 -33.28571 0
v -67.2 -34.28571 0
v -68.2 -34.28571 0
v -68.2 -33.28571 0
v -67.2 -33.28571 0
v -65.37143 -35.2 0
v -66.37143 -35.2 0
v -66.37143 -34.2 0
v -65.37143 -34.2 0
v -66.28571 -35.2 0
v -67.28571 -35.2 0
v -67.28571 -34.2 0
v -66.28571 -34.2 0
v -58.05714 -35.65714 0
v -59.05714 -35.65714 0
v -59.05714 -34.65714 0
v -58.05714 -34.65714 0
v -58.97143 -35.65714 0
v -59.97143 -35.65714 0
v -59.97143 -34.65714 0
v -58.97143 -34.65714 0
v -65.37143 -36.11428 0
v -66.37143 -36.11428 0
v -66.37143 -35.11428 0
v -65.37143 -35.11428 0
v -66.28571 -36.11428 0
v -67.28571 -36.11428 0
v -67.28571 -35.11428 0
v -66.28571 -35.11428 0
v -57.14286 -36.57143 0
v -58.14286 -36.57143 0
v -58.14286 -35.57143 0
v -57.14286 -35.57143 0
v -58.05714 -36.57143 0
v -59.05714 -36.57143 0
v -59.05714 -35.57143 0
v -58.05714 -35.57143 0
v -58.97143 -36.57143 0
v -59.97143 -36.57143 0
v -59.97143 -35.57143 0
v -58.97143 -35.57143 0
v -59.88572 -36.57143 0
v -60.88572 -36.57143 0
v -60.88572 -35.57143 0
v -59.88572 -35.57143 0
v -58.51429 -37.02857 0
v -59.51429 -37.02857 0
v -59.51429 -36.02857 0
v -58.51429 -36.02857 0
v -64.45715 -37.02857 0
v -65.45715 -37.02857 0
v -65.45715 -36.02857 0
v -64.45715 -36.02857 0
v -65.37143 -37.02857 0
v -66.37143 -37.02857 0
v -66.37143 -36.02857 0
v -65.37143 -36.02857 0
v -66.28571 -37.02857 0
v -67.28571 -37.02857 0
v -67.28571 -36.02857 0
v -66.28571 -36.02857 0
v -57.14286 -37.48571 0
v -58.14286 -37.48571 0
v -58.14286 -36.48571 0
v -57.14286 -36.48571 0
v -58.05714 -37.48571 0
v -59.05714 -37.48571 0
v -59.05714 -36.48571 0
v -58.05714 -36.48571 0
v -58.97143 -37.48571 0
v -59.97143 -37.48571 0
v -59.97143 -36.48571 0
v -58.97143 -36.48571 0
v -59.88572 -37.48571 0
v -60.88572 -37.48571 0
v -60.88572 -36.48571 0
v -59.88572 -36.48571 0
v -63.54286 -37.94286 0
v -64.54285 -37.94286 0
v -64.54285 -36.94286 0
v -63.54286 -36.94286 0
v -64.45715 -37.94286 0
v -65.45715 -37.94286 0
v -65.45715 -36.94286 0
v -64.45715 -36.94286 0
v -65.37143 -37.94286 0
v -66.37143 -37.94286 0
v -66.37143 -36.94286 0
v -65.37143 -36.94286 0
v -66.28571 -37.94286 0
v -67.28571 -37.94286 0
v -67.28571 -36.94286 0
v -66.28571 -36.94286 0
v -58.05714 -38.4 0
v -59.05714 -38.4 0
v -59.05714 -37.4 0
v -58.05714 -37.4 0
v -58.97143 -38.4 0
v -59.97143 -38.4 0
v -59.97143 -37.4 0
v -58.97143 -37.4 0
v -61.71429 -38.85714 0
v -62.71429 -38.85714 0
v -62.71429 -37.85714 0
v -61.71429 -37.85714 0
v -62.62857 -38.85714 0
v -63.62857 -38.85714 0
v -63.62857 -37.85714 0
v -62.62857 -37.85714 0
v -63.54286 -38.85714 0
v -64.54285 -38.85714 0
v -64.54285 -37.85714 0
v -63.54286 -37.85714 0
v -64.45715 -38.85714 0
v -65.45715 -38.85714 0
v -65.45715 -37.85714 0
v -64.45715 -37.85714 0
v -65.37143 -38.85714 0
v -66.37143 -38.85714 0
v -66.37143 -37.85714 0
v -65.37143 -37.85714 0
v -66.28571 -38.85714 0
v -67.28571 -38.85714 0
v -67.28571 -37.85714 0
v -66.28571 -37.85714 0
v -58.05714 -39.31429 0
v -59.05714 -39.31429 0
v -59.05714 -38.31429 0
v -58.05714 -38.31429 0
v -58.97143 -39.31429 0
v -59.97143 -39.31429 0
v -59.97143 -38.31429 0
v -58.97143 -38.31429 0
v -60.8 -39.77143 0
v -61.8 -39.77143 0
v -61.8 -38.77143 0
v -60.8 -38.77143 0
v -61.71429 -39.77143 0
v -62.71429 -39.77143 0
v -62.71429 -38.77143 0
v -61.71429 -38.77143 0
v -62.62857 -39.77143 0
v -63.62857 -39.77143 0
v -63.62857 -38.77143 0
v -62.62857 -38.77143 0
v -63.54286 -39.77143 0
v -64.54285 -39.77143 0
v -64.54285 -38.77143 0
v -63.54286 -38.77143 0
v -64.45715 -39.77143 0
v -65.45715 -39.77143 0
v -65.45715 -38.77143 0
v -64.45715 -38.77143 0
v -65.37143 -39.77143 0
v -66.37143 -39.77143 0
v -66.37143 -38.77143 0
v -65.37143 -38.77143 0
v -66.28571 -39.77143 0
v -67.28571 -39.77143 0
v -67.28571 -38.77143 0
v -66.28571 -38.77143 0
v -58.05714 -40.22857 0
v -59.05714 -40.22857 0
v -59.05714 -39.22857 0
v -58.05714 -39.22857 0
v -58.97143 -40.22857 0
v -59.97143 -40.22857 0
v -59.97143 -39.22857 0
v -58.97143 -39.22857 0
v -59.88572 -40.68571 0
v -60.88572 -40.68571 0
v -60.88572 -39.68571 0
v -59.88572 -39.68571 0
v -60.8 -40.68571 0
v -61.8 -40.68571 0
v -61.8 -39.68571 0
v -60.8 -39.68571 0
v -61.71429 -40.68571 0
v -62.71429 -40.68571 0
v -62.71429 -39.68571 0
v -61.71429 -39.68571 0
v -62.62857 -40.68571 0
v -63.62857 -40.68571 0
v -63.62857 -39.68571 0
v -62.62857 -39.68571 0
v -63.54286 -40.68571 0
v -64.54285 -40.68571 0
v -64.54285 -39.68571 0
v -63.54286 -39.68571 0
v -64.45715 -40.68571 0
v -65.45715 -40.68571 0
v -65.45715 -39.68571 0
v -64.45715 -39.68571 0
v -65.37143 -40.68571 0
v -66.37143 -40.68571 0
v -66.37143 -39.68571 0
v -65.37143 -39.68571 0
v -66.28571 -40.68571 0
v -67.28571 -40.68571 0
v -67.28571 -39.68571 0
v -66.28571 -39.68571 0
v -67.2 -40.68571 0
v -68.2 -40.68571 0
v -68.2 -39.68571 0
v -67.2 -39.68571 0
v -58.05714 -41.14286 0
v -59.05714 -41.14286 0
v -59.05714 -40.14286 0
v -58.05714 -40.14286 0
v -58.97143 -41.14286 0
v -59.97143 -41.14286 0
v -59.97143 -40.14286 0
v -58.97143 -40.14286 0
v -59.88572 -41.14286 0
v -60.88572 -41.14286 0
v -60.88572 -40.14286 0
v -59.88572 -40.14286 0
v -60.8 -41.14286 0
v -61.8 -41.14286 0
v -61.8 -40.14286 0
v -60.8 -40.14286 0
v -61.71429 -41.14286 0
v -62.71429 -41.14286 0
v -62.71429 -40.14286 0
v -61.71429 -40.14286 0
v -62.62857 -41.14286 0
v -63.62857 -41.14286 0
v -63.62857 -40.14286 0
v -62.62857 -40.14286 0
v -63.54286 -41.14286 0
v -64.54285 -41.14286 0
v -64.54285 -40.14286 0
v -63.54286 -40.14286 0
v -64.45715 -41.14286 0
v -65.45715 -41.14286 0
v -65.45715 -40.14286 0
v -64.45715 -40.14286 0
v -65.37143 -41.14286 0
v -66.37143 -41.14286 0
v -66.37143 -40.14286 0
v -65.37143 -40.14286 0
v -66.28571 -41.14286 0
v -67.28571 -41.14286 0
v -67.28571 -40.14286 0
v -66.28571 -40.14286 0
v -67.2 -41.14286 0
v -68.2 -41.14286 0
v -68.2 -40.14286 0
v -67.2 -40.14286 0
v -68.11429 -41.14286 0
v -69.11429 -41.14286 0
v -69.11429 -40.14286 0
v -68.11429 -40.14286 0
v -58.05714 -42.05714 0
v -59.05714 -42.05714 0
v -59.05714 -41.05714 0
v -58.05714 -41.05714 0
v -58.97143 -42.05714 0
v -59.97143 -42.05714 0
v -59.97143 -41.05714 0
v -58.97143 -41.05714 0
v -59.88572 -42.05714 0
v -60.88572 -42.05714 0
v -60.88572 -41.05714 0
v -59.88572 -41.05714 0
v -60.8 -42.05714 0
v -61.8 -42.05714 0
v -61.8 -41.05714 0
v -60.8 -41.05714 0
v -61.71429 -42.05714 0
v -62.71429 -42.05714 0
v -62.71429 -41.05714 0
v -61.71429 -41.05714 0
v -62.62857 -42.05714 0
v -63.62857 -42.05714 0
v -63.62857 -41.05714 0
v -62.62857 -41.05714 0
v -63.54286 -42.05714 0
v -64.54285 -42.05714 0
v -64.54285 -41.05714 0
v -63.54286 -41.05714 0
v -64.45715 -42.05714 0
v -65.45715 -42.05714 0
v -65.45715 -41.05714 0
v -64.45715 -41.05714 0
v -65.37143 -42.05714 0
v -66.37143 -42.05714 0
v -66.37143 -41.05714 0
v -65.37143 -41.05714 0
v -66.28571 -42.05714 0
v -67.28571 -42.05714 0
v -67.28571 -41.05714 0
v -66.28571 -41.05714 0
v -67.2 -42.05714 0
v -68.2 -42.05714 0
v -68.2 -41.05714 0
v -67.2 -41.05714 0
v -68.11429 -42.05714 0
v -69.11429 -42.05714 0
v -69.11429 -41.05714 0
v -68.11429 -41.05714 0
v -69.02857 -42.05714 0
v -70.02857 -42.05714 0
v -70.02857 -41.05714 0
v -69.02857 -41.05714 0
v -58.05714 -42.97143 0
v -59.05714 -42.97143 0
v -59.05714 -41.97143 0
v -58.05714 -41.97143 0
v -58.97143 -42.97143 0
v -59.97143 -42.97143 0
v -59.97143 -41.97143 0
v -58.97143 -41.97143 0
v -59.88572 -42.97143 0
v -60.88572 -42.97143 0
v -60.88572 -41.97143 0
v -59.88572 -41.97143 0
v -60.8 -42.97143 0
v -61.8 -42.97143 0
v -61.8 -41.97143 0
v -60.8 -41.97143 0
v -61.71429 -42.97143 0
v -62.71429 -42.97143 0
v -62.71429 -41.97143 0
v -61.71429 -41.97143 0
v -62.62857 -42.97143 0
v -63.62857 -42.97143 0
v -63.62857 -41.97143 0
v -62.62857 -41.97143 0
v -63.54286 -42.97143 0
v -64.54285 -42.97143 0
v -64.54285 -41.97143 0
v -63.54286 -41.97143 0
v -64.45715 -42.97143 0
v -65.45715 -42.97143 0
v -65.45715 -41.97143 0
v -64.45715 -41.97143 0
v -65.37143 -42.97143 0
v -66.37143 -42.97143 0
v -66.37143 -41.97143 0
v -65.37143 -41.97143 0
v -66.28571 -42.97143 0
v -67.28571 -42.97143 0
v -67.28571 -41.97143 0
v -66.28571 -41.97143 0
v -67.2 -42.97143 0
v -68.2 -42.97143 0
v -68.2 -41.97143 0
v -67.2 -41.97143 0
v -68.11429 -42.97143 0
v -69.11429 -42.97143 0
v -69.11429 -41.97143 0
v -68.11429 -41.97143 0
v -69.02857 -42.97143 0
v -70.02857 -42.97143 0
v -70.02857 -41.97143 0
v -69.02857 -41.97143 0
v -69.94286 -42.97143 0
v -70.94286 -42.97143 0
v -70.94286 -41.97143 0
v -69.94286 -41.97143 0

# Texture cooridinates (Count = 44)
vt 0.7089716 0.3098291
vt 0.785558 0.3098291
vt 0.785558 0.3846154
vt 0.7089716 0.3846154
vt 0.8665208 0.3867521
vt 0.9431072 0.3867521
vt 0.9431072 0.4615384
vt 0.8665208 0.4615384
vt 0.8665208 0.4636752
vt 0.9431072 0.4636752
vt 0.9431072 0.5384616
vt 0.8665208 0.5384616
vt 0.8665208 0.3098291
vt 0.9431072 0.3098291
vt 0.9431072 0.3846154
vt 0.8665208 0.3846154
vt 0.7089716 0.6944444
vt 0.785558 0.6944444
vt 0.785558 0.7692308
vt 0.7089716 0.7692308
vt 0.7089716 0.1559829
vt 0.785558 0.1559829
vt 0.785558 0.2307692
vt 0.7089716 0.2307692
vt 0.5514223 0.1559829
vt 0.6280087 0.1559829
vt 0.6280087 0.2307692
vt 0.5514223 0.2307692
vt 0.8665208 0.6175214
vt 0.9431072 0.6175214
vt 0.9431072 0.6923077
vt 0.8665208 0.6923077
vt 0.8665208 0.7713675
vt 0.9431072 0.7713675
vt 0.9431072 0.8461539
vt 0.8665208 0.8461539
vt 0.8665208 0.232906
vt 0.9431072 0.232906
vt 0.9431072 0.3076923
vt 0.8665208 0.3076923
vt 0.8665208 0.5405983
vt 0.9431072 0.5405983
vt 0.9431072 0.6153846
vt 0.8665208 0.6153846

# Normal
vn 0 0 -1

# Mesh description
g FirstLevel_mesh_0006

# Faces
f 1/1/1 2/2/1 3/3/1 4/4/1
f 5/5/1 6/6/1 7/7/1 8/8/1
f 9/1/1 10/2/1 11/3/1 12/4/1
f 13/9/1 14/10/1 15/11/1 16/12/1
f 17/13/1 18/14/1 19/15/1 20/16/1
f 21/5/1 22/6/1 23/7/1 24/8/1
f 25/17/1 26/18/1 27/19/1 28/20/1
f 29/21/1 30/22/1 31/23/1 32/24/1
f 33/25/1 34/26/1 35/27/1 36/28/1
f 37/25/1 38/26/1 39/27/1 40/28/1
f 41/29/1 42/30/1 43/31/1 44/32/1
f 45/25/1 46/26/1 47/27/1 48/28/1
f 49/25/1 50/26/1 51/27/1 52/28/1
f 53/1/1 54/2/1 55/3/1 56/4/1
f 57/5/1 58/6/1 59/7/1 60/8/1
f 61/25/1 62/26/1 63/27/1 64/28/1
f 65/25/1 66/26/1 67/27/1 68/28/1
f 69/1/1 70/2/1 71/3/1 72/4/1
f 73/9/1 74/10/1 75/11/1 76/12/1
f 77/13/1 78/14/1 79/15/1 80/16/1
f 81/5/1 82/6/1 83/7/1 84/8/1
f 85/17/1 86/18/1 87/19/1 88/20/1
f 89/1/1 90/2/1 91/3/1 92/4/1
f 93/25/1 94/26/1 95/27/1 96/28/1
f 97/25/1 98/26/1 99/27/1 100/28/1
f 101/21/1 102/22/1 103/23/1 104/24/1
f 105/25/1 106/26/1 107/27/1 108/28/1
f 109/25/1 110/26/1 111/27/1 112/28/1
f 113/29/1 114/30/1 115/31/1 116/32/1
f 117/1/1 118/2/1 119/3/1 120/4/1
f 121/9/1 122/10/1 123/11/1 124/12/1
f 125/25/1 126/26/1 127/27/1 128/28/1
f 129/25/1 130/26/1 131/27/1 132/28/1
f 133/25/1 134/26/1 135/27/1 136/28/1
f 137/25/1 138/26/1 139/27/1 140/28/1
f 141/1/1 142/2/1 143/3/1 144/4/1
f 145/33/1 146/34/1 147/35/1 148/36/1
f 149/9/1 150/10/1 151/11/1 152/12/1
f 153/25/1 154/26/1 155/27/1 156/28/1
f 157/25/1 158/26/1 159/27/1 160/28/1
f 161/25/1 162/26/1 163/27/1 164/28/1
f 165/25/1 166/26/1 167/27/1 168/28/1
f 169/25/1 170/26/1 171/27/1 172/28/1
f 173/1/1 174/2/1 175/3/1 176/4/1
f 177/9/1 178/10/1 179/11/1 180/12/1
f 181/25/1 182/26/1 183/27/1 184/28/1
f 185/25/1 186/26/1 187/27/1 188/28/1
f 189/25/1 190/26/1 191/27/1 192/28/1
f 193/25/1 194/26/1 195/27/1 196/28/1
f 197/25/1 198/26/1 199/27/1 200/28/1
f 201/25/1 202/26/1 203/27/1 204/28/1
f 205/25/1 206/26/1 207/27/1 208/28/1
f 209/37/1 210/38/1 211/39/1 212/40/1
f 213/41/1 214/42/1 215/43/1 216/44/1
f 217/41/1 218/42/1 219/43/1 220/44/1
f 221/41/1 222/42/1 223/43/1 224/44/1
f 225/41/1 226/42/1 227/43/1 228/44/1
f 229/37/1 230/38/1 231/39/1 232/40/1
f 233/41/1 234/42/1 235/43/1 236/44/1
f 237/41/1 238/42/1 239/43/1 240/44/1
f 241/41/1 242/42/1 243/43/1 244/44/1
f 245/25/1 246/26/1 247/27/1 248/28/1
f 249/25/1 250/26/1 251/27/1 252/28/1
f 253/25/1 254/26/1 255/27/1 256/28/1
f 257/25/1 258/26/1 259/27/1 260/28/1
f 261/25/1 262/26/1 263/27/1 264/28/1
f 265/25/1 266/26/1 267/27/1 268/28/1
f 269/25/1 270/26/1 271/27/1 272/28/1
f 273/25/1 274/26/1 275/27/1 276/28/1
f 277/25/1 278/26/1 279/27/1 280/28/1
f 281/25/1 282/26/1 283/27/1 284/28/1
f 285/13/1 286/14/1 287/15/1 288/16/1
f 289/5/1 290/6/1 291/7/1 292/8/1
f 293/25/1 294/26/1 295/27/1 296/28/1
f 297/25/1 298/26/1 299/27/1 300/28/1
f 301/25/1 302/26/1 303/27/1 304/28/1
f 305/25/1 306/26/1 307/27/1 308/28/1
f 309/25/1 310/26/1 311/27/1 312/28/1
f 313/25/1 314/26/1 315/27/1 316/28/1
f 317/25/1 318/26/1 319/27/1 320/28/1
f 321/25/1 322/26/1 323/27/1 324/28/1
f 325/25/1 326/26/1 327/27/1 328/28/1
f 329/25/1 330/26/1 331/27/1 332/28/1
f 333/25/1 334/26/1 335/27/1 336/28/1
f 337/13/1 338/14/1 339/15/1 340/16/1
f 341/5/1 342/6/1 343/7/1 344/8/1
f 345/25/1 346/26/1 347/27/1 348/28/1
f 349/25/1 350/26/1 351/27/1 352/28/1
f 353/25/1 354/26/1 355/27/1 356/28/1
f 357/25/1 358/26/1 359/27/1 360/28/1
f 361/25/1 362/26/1 363/27/1 364/28/1
f 365/25/1 366/26/1 367/27/1 368/28/1
f 369/25/1 370/26/1 371/27/1 372/28/1
f 373/25/1 374/26/1 375/27/1 376/28/1
f 377/25/1 378/26/1 379/27/1 380/28/1
f 381/25/1 382/26/1 383/27/1 384/28/1
f 385/25/1 386/26/1 387/27/1 388/28/1
f 389/25/1 390/26/1 391/27/1 392/28/1
f 393/13/1 394/14/1 395/15/1 396/16/1
f 397/5/1 398/6/1 399/7/1 400/8/1

